<?xml version="1.0" encoding="UTF-8"?>
<svg width="422px" height="297px" viewBox="0 0 422 297" version="1.1" xmlns="http://www.w3.org/2000/svg" xmlns:xlink="http://www.w3.org/1999/xlink">
    <!-- Generator: Sketch 55.2 (78181) - https://sketchapp.com -->
    <title>深圳</title>
    <desc>Created with Sketch.</desc>
    <defs>
        <linearGradient x1="5.34284745%" y1="35.8417589%" x2="97.1526929%" y2="64.6547198%" id="linearGradient-1">
            <stop stop-color="#AED581" offset="0%"></stop>
            <stop stop-color="#388E3C" offset="100%"></stop>
        </linearGradient>
        <filter x="-24.0%" y="-41.1%" width="148.0%" height="182.3%" filterUnits="objectBoundingBox" id="filter-2">
            <feGaussianBlur stdDeviation="24" in="SourceGraphic"></feGaussianBlur>
        </filter>
        <linearGradient x1="5.34284745%" y1="36.9626318%" x2="97.1526929%" y2="63.494542%" id="linearGradient-3">
            <stop stop-color="#AED581" offset="0%"></stop>
            <stop stop-color="#388E3C" offset="100%"></stop>
        </linearGradient>
        <rect id="path-4" x="0" y="0" width="343" height="192" rx="24"></rect>
    </defs>
    <g id="Page-1" stroke="none" stroke-width="1" fill="none" fill-rule="evenodd">
        <g id="深圳" transform="translate(39.000000, 33.000000)">
            <g id="Fill-1">
                <rect id="SHADOW" fill="url(#linearGradient-1)" opacity="0.5" filter="url(#filter-2)" x="22" y="28" width="300" height="175" rx="24"></rect>
                <mask id="mask-5" fill="white">
                    <use xlink:href="#path-4"></use>
                </mask>
                <use id="Mask" fill="url(#linearGradient-3)" xlink:href="#path-4"></use>
                <path d="M211.252427,108.414977 L211.252427,83.5850227 C177.03515,69.2390659 153,35.4263879 153,-4 L186.441208,-4 C186.441208,16.2135588 196.194837,34.1490355 211.252427,45.3567624 L211.252427,-1.08737864 L237.142395,-1.08737864 L237.142395,56.5455377 C240.644801,57.1653425 244.249582,57.4886731 247.929881,57.4886731 C250.85889,57.4886731 253.740066,57.2838769 256.559871,56.8878227 L256.559871,-1.08737864 L282.449838,-1.08737864 L282.449838,46.8917943 C298.726675,35.8297008 309.418554,17.1634616 309.418554,-4 L342.859763,-4 C342.859763,36.2499663 317.809984,70.6492434 282.449839,84.4584192 L282.449838,107.541573 C317.809984,121.350757 342.859763,155.750034 342.859763,196 L309.418554,196 C309.418554,174.836538 298.726675,156.170299 282.449838,145.108206 L282.449838,193.087379 L256.559871,193.087379 L256.559871,135.112177 C253.740066,134.716123 250.85889,134.511327 247.929881,134.511327 C244.249582,134.511327 240.644801,134.834657 237.142395,135.454462 L237.142395,193.087379 L211.252427,193.087379 L211.252427,146.643238 C196.194837,157.850965 186.441208,175.786441 186.441208,196 L153,196 C153,156.573612 177.03515,122.760934 211.252425,108.414989 Z M237.142395,101.676302 C240.682863,101.275836 244.282348,101.070119 247.929881,101.070119 C250.838962,101.070119 253.71748,101.200972 256.559871,101.457113 L256.559871,90.5428866 C253.71748,90.7990282 250.838962,90.9298813 247.929881,90.9298813 C244.282348,90.9298813 240.682863,90.7241638 237.142395,90.323698 L237.142395,101.676302 Z" id="Combined-Shape" fill="#FFFFFF" opacity="0.200000003" mask="url(#mask-5)"></path>
            </g>
            <text id="深圳地铁" font-family="PingFangSC-Semibold, PingFang SC" font-size="17" font-weight="500" fill="#FFFFFF">
                <tspan x="56" y="161">深圳地铁</tspan>
            </text>
            <text id="BEIJING-SUBWAY" font-family="PingFangSC-Semibold, PingFang SC" font-size="8" font-weight="500" fill="#FFFFFF">
                <tspan x="56" y="173">BEIJING SUBWAY</tspan>
            </text>
            <path d="M24.84,161.212225 L24.84,156.787775 C20.2348108,154.857002 17,150.306266 17,145 L21.5007407,145 C21.5007407,147.720475 22.8134491,150.134352 24.84,151.642762 L24.84,145.933333 L28.3244444,145.933333 L28.3244444,153.148622 C28.7958217,153.23204 29.2809771,153.275556 29.7762963,153.275556 C30.1705018,153.275556 30.5582696,153.247993 30.9377778,153.194689 L30.9377778,145.933333 L34.4222222,145.933333 L34.4222222,151.849357 C36.6128674,150.360547 38.0518519,147.84832 38.0518519,145 L42.5525926,145 C42.5525926,150.417109 39.1812263,155.046793 34.4222222,156.905324 L34.4222222,161.094676 C39.1812263,162.953207 42.5525926,167.582891 42.5525926,173 L38.0518519,173 C38.0518519,170.15168 36.6128674,167.639453 34.4222222,166.150643 L34.4222222,172.066667 L30.9377778,172.066667 L30.9377778,164.805311 C30.5582696,164.752007 30.1705018,164.724444 29.7762963,164.724444 C29.2809771,164.724444 28.7958217,164.76796 28.3244444,164.851378 L28.3244444,172.066667 L24.84,172.066667 L24.84,166.357238 C22.8134491,167.865648 21.5007407,170.279525 21.5007407,173 L17,173 C17,167.693734 20.2348108,163.142998 24.84,161.212225 Z M28.3244444,160.305288 C28.8009442,160.251391 29.285387,160.223704 29.7762963,160.223704 C30.1678197,160.223704 30.5552299,160.241315 30.9377778,160.275788 L30.9377778,157.724212 C30.5552299,157.758685 30.1678197,157.776296 29.7762963,157.776296 C29.285387,157.776296 28.8009442,157.748609 28.3244444,157.694712 L28.3244444,160.305288 Z" id="Combined-Shape-Copy" fill="#FFFFFF"></path>
        </g>
    </g>
</svg>